<svg width="70" height="60" viewBox="0 0 70 60" fill="none" xmlns="http://www.w3.org/2000/svg">
<path d="M69.3817 26.4987C70.6643 11.8062 57.0855 8.26942 48.7797 8.27014C47.7811 8.27023 46.9288 8.95371 46.6393 9.90934C46.166 11.4712 47.3638 13.0465 48.9912 13.1689C56.3256 13.7206 66.2155 16.8407 64.3912 26.4987C62.6208 35.8714 54.4975 37.6379 48.7464 37.2402C47.1618 37.1307 45.6766 38.3107 45.6766 39.8991C45.6766 41.0825 46.5134 42.1095 47.6903 42.233C55.4491 43.047 68.1255 40.888 69.3817 26.4987Z" fill="url(#paint0_linear_1_457)"/>
<path d="M48.0796 3.09408V55.9728C48.0796 57.6833 46.693 59.0698 44.9826 59.0698H3.23492C1.52449 59.0698 0.137911 57.6833 0.137912 55.9728L0.137951 3.09407C0.137952 1.38365 1.52453 -0.00292969 3.23496 -0.00292969H44.9826C46.693 -0.00292969 48.0796 1.38365 48.0796 3.09408Z" fill="url(#paint1_linear_1_457)"/>
<defs>
<linearGradient id="paint0_linear_1_457" x1="77.5126" y1="15.4221" x2="45.6766" y2="16.1209" gradientUnits="userSpaceOnUse">
<stop stop-color="white"/>
<stop offset="1" stop-color="#CCCCCC"/>
</linearGradient>
<linearGradient id="paint1_linear_1_457" x1="24.1088" y1="-17.8359" x2="24.1088" y2="77.3883" gradientUnits="userSpaceOnUse">
<stop stop-color="white"/>
<stop offset="1" stop-color="#CCCCCC"/>
</linearGradient>
</defs>
</svg>
