<svg width="381" height="325" viewBox="0 0 381 325" fill="none" xmlns="http://www.w3.org/2000/svg">
<path d="M46.253 166.689C57.4599 158.907 99.1564 144.889 118.604 138.853H140.447C153.411 142.066 182.535 149.791 195.326 154.976C208.117 160.161 231.436 190.866 240.799 205.126L230.611 224.633C204.684 250.215 225.574 272.8 239.402 281.154C218.661 281.154 209.73 273.376 207.858 269.487C209.932 281.241 211.603 310.106 212.179 323.07H59.6411V299.51H1.46208C-3.89951 240.848 32.2445 176.417 46.253 166.689Z" fill="url(#paint0_linear_2753_20)"/>
<ellipse cx="131.172" cy="157.361" rx="25.9725" ry="18.5082" fill="#CF0606"/>
<path d="M111.89 155.45C115.262 136.065 114.074 118.128 113.547 111.939C114.284 106.145 144.944 116.997 159.692 122.792C151.37 127.006 149.114 148.075 149.026 158.083C149.289 161.376 147.235 168.355 136.911 169.935C119.634 171.937 113.032 161.112 111.89 155.45Z" fill="url(#paint1_linear_2753_20)"/>
<mask id="mask0_2753_20" style="mask-type:alpha" maskUnits="userSpaceOnUse" x="111" y="110" width="49" height="61">
<path d="M111.89 155.45C115.262 136.065 114.074 118.128 113.547 111.939C114.284 106.145 144.944 116.997 159.692 122.792C151.37 127.006 149.114 148.075 149.026 158.083C149.289 161.376 147.235 168.355 136.911 169.935C119.634 171.937 113.032 161.112 111.89 155.45Z" fill="#BABABA"/>
</mask>
<g mask="url(#mask0_2753_20)">
<path opacity="0.1" d="M154.589 142.902C133.826 139.662 118.433 121.408 113.331 112.686C125.182 110.241 151.828 106.819 163.608 112.686C175.389 118.553 162.504 135.275 154.589 142.902Z" fill="black"/>
</g>
<path d="M148.264 126.341C182.366 124.858 183.34 78.2217 179.565 55.0888C117.951 2.86484 93.2114 43.8999 88.5437 70.9455C94.2411 90.0284 114.161 127.824 148.264 126.341Z" fill="url(#paint2_linear_2753_20)"/>
<path d="M104.245 8.47486C94.4341 5.38228 73.9803 3.83601 70.6531 22.3916C70.6531 34.3887 99.6061 31.3494 104.245 8.47486Z" fill="#30235B"/>
<path d="M116.058 70.0981L129.953 82.0323L128.445 88.9924L115.485 77.6183L116.058 70.0981Z" fill="#111111"/>
<path d="M101.929 80.83C113.791 90.8794 114.56 106.571 113.461 113.161C109.617 112.131 98.8814 105.459 86.6901 87.0079C67.2503 47.3045 90.6715 17.6093 104.812 7.72464C142.703 -14.3099 193.362 19.8745 184.507 46.0277C175.652 72.1809 133.299 66.1403 117.58 56.1183C120.874 66.003 117.854 75.7504 115.932 79.3885C108.519 62.0903 87.1021 68.2682 101.929 80.83Z" fill="#30235B"/>
<path d="M127.321 2.62191C152.553 -4.62555 167.92 8.43778 172.45 15.8754C167.361 13.1352 153.258 9.29898 137.555 15.8754C112.726 27.2834 107.301 51.6093 107.693 62.3463L91.2517 61.1719V55.1324C92.7616 40.6487 102.089 9.86936 127.321 2.62191Z" fill="white"/>
<ellipse cx="97.9851" cy="77.0673" rx="19.2976" ry="23.6088" fill="white"/>
<ellipse cx="97.9851" cy="77.0673" rx="19.2976" ry="23.6088" fill="white"/>
<ellipse cx="97.9853" cy="77.0673" rx="9.21133" ry="11.2692" fill="#24C28A"/>
<path opacity="0.5" d="M182.303 73.4645C175.15 71.2537 167.447 75.9667 164.489 78.5996C159.111 83.7347 167.266 96.7921 176.695 90.7773C184.238 85.9655 183.577 77.2305 182.303 73.4645Z" fill="#E6FCFF"/>
<path fill-rule="evenodd" clip-rule="evenodd" d="M161.458 77.0496C171.804 67.4926 181.615 69.1265 185.228 71.138C187.318 76.6734 185.228 92.8487 173.69 94.2827C164.459 95.4299 161.296 88.2937 160.868 84.5821C159.114 83.165 157.948 84.3865 157.585 85.1745C157.888 95.4895 149.596 102.467 140.696 100.849C133.577 99.5549 130.478 92.4406 129.818 89.0453H128.346V83.0097C137.617 73.9321 150.425 76.1571 155.67 78.4043C157.049 77.3205 160.104 77.0496 161.458 77.0496ZM181.76 74.1121C174.607 71.9012 168.072 75.6893 165.114 78.3221C159.736 83.4572 166.8 96.0376 176.669 90.7771C182.579 87.6271 183.033 77.8781 181.76 74.1121ZM141.315 80.8433C145.22 79.5722 153.185 78.7217 153.795 85.4888C154.558 93.9476 146.861 100.188 140.136 96.8597C135.266 94.45 133.272 89.5102 133.272 86.3901C133.272 83.8941 138.634 81.6522 141.315 80.8433Z" fill="#111111"/>
<path opacity="0.5" d="M153.821 85.489C153.211 78.7219 145.246 79.5724 141.34 80.8435C138.66 81.6524 133.298 83.8943 133.298 86.3903C133.298 89.5104 135.292 94.4502 140.162 96.8599C146.887 100.188 154.583 93.9478 153.821 85.489Z" fill="#E6FCFF"/>
<path d="M1.41271 299.585C7.41201 326.321 43.0385 326.375 60.1019 323.061L191.628 304.058C193.323 305.531 197.384 309.413 200.061 313.165C202.738 316.916 205.192 314.279 206.084 312.491C209.939 316.668 212.777 314.68 213.714 313.165C217.034 317.344 219.827 315.885 220.809 314.633C225.413 318.06 226.576 315.082 226.581 313.165C220.299 299.862 209.029 286.529 204.18 281.525L171.385 284.528L64.8296 273.664C44.6145 259.481 -6.08642 266.165 1.41271 299.585Z" fill="url(#paint3_linear_2753_20)"/>
<path d="M256.251 259.133C250.31 278.319 242.12 281.671 238.767 280.949C203.481 257.337 218.633 233.141 230.62 223.995L261.865 159.664C257.341 156.126 252.301 145.059 252.818 138.08C253.232 132.497 257.04 132.31 258.892 132.915C259.409 127.13 263.588 127.314 265.613 128.129C267.371 121.822 272.463 123.175 274.789 124.639C275.099 115.954 281.122 117.144 284.094 118.824L289.312 132.915C291.444 133.211 296.388 133.895 299.111 134.267C302.515 134.731 306.848 135.35 304.681 140.146C302.949 143.984 294.16 157.115 289.982 163.201C281.214 187.184 262.193 239.946 256.251 259.133Z" fill="url(#paint4_linear_2753_20)"/>
<path d="M166.31 316.167H235.116C235.116 319.979 232.025 323.07 228.213 323.07H173.212C169.4 323.07 166.31 319.979 166.31 316.167Z" fill="#B4B4B4"/>
<path d="M257.053 231.218C257.534 230.064 258.662 229.313 259.912 229.313H376.112C378.322 229.313 379.821 231.561 378.971 233.601L342.466 321.164C341.985 322.318 340.858 323.07 339.608 323.07H223.407C221.197 323.07 219.698 320.821 220.549 318.781L257.053 231.218Z" fill="url(#paint5_linear_2753_20)"/>
<path d="M207.764 269.631C207.301 266.78 206.514 259.889 207.069 255.134" stroke="#30235B" stroke-width="0.619401"/>
<path d="M206.925 260.451L204.271 255.072" stroke="#30235B" stroke-width="0.619401"/>
<path d="M205.986 312.269L197.368 301.392" stroke="#30235B" stroke-width="0.619401"/>
<path d="M213.614 312.807L200.164 295.352" stroke="#30235B" stroke-width="0.619401"/>
<path d="M220.685 314.407L203.967 290.319" stroke="#30235B" stroke-width="0.619401"/>
<path d="M94.0885 99.4832C88.7162 98.355 78.0589 91.3081 79.0207 75.118" stroke="#30235B" stroke-width="0.949425"/>
<path d="M230.578 223.938L240.169 204.272" stroke="#30235B" stroke-width="0.949425"/>
<path d="M150.429 282.283C147.241 293.043 149.101 305.199 150.429 309.932L159.294 308.675C157.446 294.574 158.524 285.857 159.294 283.262L150.429 282.283Z" fill="#30235B"/>
<rect x="146.917" y="277.674" width="16.7668" height="4.34698" rx="2.17349" transform="rotate(6.01694 146.917 277.674)" fill="url(#paint6_linear_2753_20)"/>
<defs>
<linearGradient id="paint0_linear_2753_20" x1="133.261" y1="108.563" x2="120.861" y2="356.901" gradientUnits="userSpaceOnUse">
<stop stop-color="#FF9F81"/>
<stop offset="1" stop-color="#F53838"/>
</linearGradient>
<linearGradient id="paint1_linear_2753_20" x1="133.127" y1="41.3437" x2="130.91" y2="151.644" gradientUnits="userSpaceOnUse">
<stop stop-color="#FFEFE0"/>
<stop offset="1" stop-color="#FFBE99"/>
</linearGradient>
<linearGradient id="paint2_linear_2753_20" x1="134.808" y1="29.928" x2="134.808" y2="126.383" gradientUnits="userSpaceOnUse">
<stop stop-color="#FFEFE0"/>
<stop offset="1" stop-color="#FFBE99"/>
</linearGradient>
<linearGradient id="paint3_linear_2753_20" x1="113.622" y1="230.635" x2="113.622" y2="314.501" gradientUnits="userSpaceOnUse">
<stop offset="0.0677966" stop-color="#FFEFE0"/>
<stop offset="1" stop-color="#FFBE99"/>
</linearGradient>
<linearGradient id="paint4_linear_2753_20" x1="230.507" y1="107.546" x2="311.893" y2="202.794" gradientUnits="userSpaceOnUse">
<stop stop-color="#FFEFE0"/>
<stop offset="1" stop-color="#FFBE99"/>
</linearGradient>
<linearGradient id="paint5_linear_2753_20" x1="333.21" y1="158.948" x2="287.565" y2="348.293" gradientUnits="userSpaceOnUse">
<stop offset="0.0171777" stop-color="white"/>
<stop offset="1" stop-color="#D7D7D7"/>
</linearGradient>
<linearGradient id="paint6_linear_2753_20" x1="154.982" y1="276.824" x2="154.87" y2="282.092" gradientUnits="userSpaceOnUse">
<stop stop-color="#7F67CE"/>
<stop offset="1" stop-color="#30235B"/>
</linearGradient>
</defs>
</svg>
