<svg width="49" height="16" viewBox="0 0 49 16" fill="none" xmlns="http://www.w3.org/2000/svg">
<path d="M6.432 13C6.32533 13 6.23467 12.968 6.16 12.904C6.096 12.8293 6.064 12.7387 6.064 12.632V10.296H0.864C0.757333 10.296 0.666667 10.264 0.592 10.2C0.528 10.1253 0.496 10.0347 0.496 9.928V9.336C0.496 9.18667 0.554667 9.02667 0.672 8.856L5.488 2.072C5.54133 1.98667 5.62133 1.92267 5.728 1.88C5.83467 1.82667 5.952 1.8 6.08 1.8H7.168C7.28533 1.8 7.376 1.832 7.44 1.896C7.504 1.96 7.536 2.05067 7.536 2.168V8.952H8.992C9.09867 8.952 9.184 8.98933 9.248 9.064C9.32267 9.128 9.36 9.21333 9.36 9.32V9.928C9.36 10.0347 9.32267 10.1253 9.248 10.2C9.184 10.264 9.09867 10.296 8.992 10.296H7.536V12.632C7.536 12.7387 7.49867 12.8293 7.424 12.904C7.36 12.968 7.27467 13 7.168 13H6.432ZM2.16 8.984H6.08V3.416L2.16 8.984ZM11.0966 13C10.99 13 10.8993 12.968 10.8246 12.904C10.7606 12.8293 10.7286 12.7387 10.7286 12.632V11.528C10.7286 11.4213 10.7606 11.3307 10.8246 11.256C10.8993 11.1813 10.99 11.144 11.0966 11.144H12.2006C12.3073 11.144 12.3926 11.1813 12.4566 11.256C12.5313 11.3307 12.5686 11.4213 12.5686 11.528V12.632C12.5686 12.7387 12.5313 12.8293 12.4566 12.904C12.3926 12.968 12.3073 13 12.2006 13H11.0966ZM18.2966 13.16C17.4966 13.16 16.8033 13.016 16.2166 12.728C15.63 12.44 15.182 12.0667 14.8726 11.608C14.5633 11.1387 14.398 10.6373 14.3766 10.104V10.072C14.3766 9.98667 14.4086 9.91733 14.4726 9.864C14.5366 9.81067 14.6113 9.784 14.6966 9.784H15.4806C15.7046 9.784 15.8486 9.90133 15.9126 10.136C16.0726 10.712 16.366 11.144 16.7926 11.432C17.23 11.7093 17.7313 11.848 18.2966 11.848C19.022 11.848 19.6246 11.6293 20.1046 11.192C20.5846 10.744 20.8246 10.1307 20.8246 9.352C20.8246 8.63733 20.5846 8.072 20.1046 7.656C19.6246 7.22933 19.022 7.016 18.2966 7.016C17.9126 7.016 17.6033 7.064 17.3686 7.16C17.134 7.256 16.894 7.39467 16.6486 7.576C16.51 7.68267 16.3926 7.76267 16.2966 7.816C16.2113 7.85867 16.1153 7.88 16.0086 7.88H15.2406C15.1446 7.88 15.0593 7.848 14.9846 7.784C14.91 7.70933 14.878 7.624 14.8886 7.528L15.3846 2.2C15.4166 1.93333 15.55 1.8 15.7846 1.8H21.3206C21.438 1.8 21.5286 1.832 21.5926 1.896C21.6566 1.96 21.6886 2.05067 21.6886 2.168V2.76C21.6886 2.86667 21.6513 2.952 21.5766 3.016C21.5126 3.08 21.4273 3.112 21.3206 3.112H16.7126L16.4246 6.328C16.9366 5.96533 17.6246 5.784 18.4886 5.784C19.2033 5.784 19.854 5.928 20.4406 6.216C21.0273 6.49333 21.4913 6.904 21.8326 7.448C22.1846 7.992 22.3606 8.63733 22.3606 9.384C22.3606 10.1733 22.1846 10.856 21.8326 11.432C21.4913 11.9973 21.0113 12.4293 20.3926 12.728C19.7846 13.016 19.086 13.16 18.2966 13.16Z" fill="#0B132A"/>
<path d="M48.1891 4.81329L44.2219 4.23672L42.4484 0.641412C42.4 0.542975 42.3203 0.463287 42.2219 0.41485C41.975 0.292975 41.675 0.394537 41.5516 0.641412L39.7781 4.23672L35.8109 4.81329C35.7016 4.82891 35.6016 4.88047 35.525 4.9586C35.4324 5.05373 35.3814 5.18173 35.3832 5.31445C35.385 5.44717 35.4393 5.57376 35.5344 5.66641L38.4047 8.46485L37.7266 12.4164C37.7107 12.5083 37.7208 12.6029 37.7559 12.6893C37.791 12.7757 37.8496 12.8506 37.9251 12.9054C38.0006 12.9603 38.0899 12.9928 38.183 12.9995C38.276 13.0061 38.3691 12.9865 38.4516 12.943L42 11.0773L45.5484 12.943C45.6453 12.9945 45.7578 13.0117 45.8656 12.993C46.1375 12.9461 46.3203 12.6883 46.2734 12.4164L45.5953 8.46485L48.4656 5.66641C48.5437 5.58985 48.5953 5.48985 48.6109 5.38047C48.6531 5.10704 48.4625 4.85391 48.1891 4.81329Z" fill="#FEA250"/>
</svg>
